<svg height="504pt" viewBox="0 -22 504 504" width="504pt" xmlns="http://www.w3.org/2000/svg"><path d="m24 23.839844h16v264.082031h-16zm0 0" fill="#e6e9ed"/><path d="m40 23.921875h440v263.917969h-440zm0 0" fill="#434a54"/><path d="m264 339.839844c0 6.628906-5.371094 12-12 12s-12-5.371094-12-12 5.371094-12 12-12 12 5.371094 12 12zm0 0" fill="#ccd1d9"/><path d="m504 344v15.839844c0 13.511718-10.488281 24-24 24-5.679688 0-85.039062 0-176.078125 0-34.082031 0-69.769531 0-103.84375 0-91.039063 0-170.398437 0-176.078125 0-13.511719 0-24-10.488282-24-24v-15.839844c0 13.199219 10.800781 24 24 24h456c13.199219 0 24-10.800781 24-24zm0 0" fill="#ccd1d9"/><path d="m303.921875 383.839844 16 72h-135.84375l16-72zm0 0" fill="#ccd1d9"/><path d="m252 311.839844h-252v32.160156c0 13.199219 10.800781 24 24 24h456c13.199219 0 24-10.800781 24-24v-32.160156zm0 40c-6.640625 0-12-5.359375-12-12s5.359375-12 12-12 12 5.359375 12 12-5.359375 12-12 12zm0 0" fill="#e6e9ed"/><path d="m504 24v287.839844h-504v-287.839844c0-13.191406 10.800781-24 24-24h456c13.199219 0 24 10.800781 24 24zm-24 263.839844v-264h-456v264zm0 0" fill="#656d78"/><path d="m305.703125 391.839844-1.78125-8c-34.082031 0-69.769531 0-103.84375 0l-1.78125 8zm0 0" fill="#aab2bd"/><path d="m332 459.792969h-160c-2.207031 0-4-1.792969-4-4s1.792969-4 4-4h160c2.207031 0 4 1.792969 4 4s-1.792969 4-4 4zm0 0" fill="#e6e9ed"/><path d="m96 51.921875h-32c-2.207031 0-4-1.792969-4-4 0-2.210937 1.792969-4 4-4h32c2.207031 0 4 1.789063 4 4 0 2.207031-1.792969 4-4 4zm0 0" fill="#ffce54"/><path d="m240 75.921875h-112c-2.207031 0-4-1.792969-4-4 0-2.210937 1.792969-4 4-4h112c2.207031 0 4 1.789063 4 4 0 2.207031-1.792969 4-4 4zm0 0" fill="#ac92ec"/><path d="m112 75.921875h-40c-2.207031 0-4-1.792969-4-4 0-2.210937 1.792969-4 4-4h40c2.207031 0 4 1.789063 4 4 0 2.207031-1.792969 4-4 4zm0 0" fill="#ac92ec"/><path d="m336 99.921875h-104c-2.207031 0-4-1.792969-4-4 0-2.210937 1.792969-4 4-4h104c2.207031 0 4 1.789063 4 4 0 2.207031-1.792969 4-4 4zm0 0" fill="#5d9cec"/><path d="m384 99.921875h-32c-2.207031 0-4-1.792969-4-4 0-2.210937 1.792969-4 4-4h32c2.207031 0 4 1.789063 4 4 0 2.207031-1.792969 4-4 4zm0 0" fill="#5d9cec"/><path d="m216 99.921875h-136c-2.207031 0-4-1.792969-4-4 0-2.210937 1.792969-4 4-4h136c2.207031 0 4 1.789063 4 4 0 2.207031-1.792969 4-4 4zm0 0" fill="#5d9cec"/><path d="m120.015625 147.921875h-24c-2.207031 0-4-1.792969-4-4 0-2.210937 1.792969-4 4-4h24c2.207031 0 4 1.789063 4 4 0 2.207031-1.792969 4-4 4zm0 0" fill="#ed5565"/><path d="m254.769531 147.921875h-118.753906c-2.207031 0-4-1.792969-4-4 0-2.210937 1.792969-4 4-4h118.753906c2.207031 0 4 1.789063 4 4 0 2.207031-1.792969 4-4 4zm0 0" fill="#ed5565"/><path d="m272 123.921875h-184c-2.207031 0-4-1.792969-4-4 0-2.210937 1.792969-4 4-4h184c2.207031 0 4 1.789063 4 4 0 2.207031-1.792969 4-4 4zm0 0" fill="#a0d468"/><path d="m280.015625 171.921875h-72c-2.207031 0-4-1.792969-4-4 0-2.210937 1.792969-4 4-4h72c2.207031 0 4 1.789063 4 4 0 2.207031-1.792969 4-4 4zm0 0" fill="#4fc1e9"/><path d="m224.015625 195.921875h-136c-2.207031 0-4-1.792969-4-4 0-2.210937 1.792969-4 4-4h136c2.207031 0 4 1.789063 4 4 0 2.207031-1.792969 4-4 4zm0 0" fill="#a0d468"/><path d="m136 243.921875h-64c-2.207031 0-4-1.792969-4-4 0-2.210937 1.792969-4 4-4h64c2.207031 0 4 1.789063 4 4 0 2.207031-1.792969 4-4 4zm0 0" fill="#ac92ec"/><path d="m296 219.921875h-112c-2.207031 0-4-1.792969-4-4 0-2.210937 1.792969-4 4-4h112c2.207031 0 4 1.789063 4 4 0 2.207031-1.792969 4-4 4zm0 0" fill="#5d9cec"/><path d="m320 219.921875h-8c-2.207031 0-4-1.792969-4-4 0-2.210937 1.792969-4 4-4h8c2.207031 0 4 1.789063 4 4 0 2.207031-1.792969 4-4 4zm0 0" fill="#5d9cec"/><path d="m168 219.921875h-88c-2.207031 0-4-1.792969-4-4 0-2.210937 1.792969-4 4-4h88c2.207031 0 4 1.789063 4 4 0 2.207031-1.792969 4-4 4zm0 0" fill="#5d9cec"/><path d="m96 267.921875h-32c-2.207031 0-4-1.792969-4-4 0-2.210937 1.792969-4 4-4h32c2.207031 0 4 1.789063 4 4 0 2.207031-1.792969 4-4 4zm0 0" fill="#ffce54"/><path d="m288.015625 195.921875h-48c-2.207031 0-4-1.792969-4-4 0-2.210937 1.792969-4 4-4h48c2.207031 0 4 1.789063 4 4 0 2.207031-1.792969 4-4 4zm0 0" fill="#a0d468"/><path d="m352.015625 171.921875h-56c-2.207031 0-4-1.792969-4-4 0-2.210937 1.792969-4 4-4h56c2.207031 0 4 1.789063 4 4 0 2.207031-1.792969 4-4 4zm0 0" fill="#4fc1e9"/><path d="m192.015625 171.921875h-96c-2.207031 0-4-1.792969-4-4 0-2.210937 1.792969-4 4-4h96c2.207031 0 4 1.789063 4 4 0 2.207031-1.792969 4-4 4zm0 0" fill="#4fc1e9"/><g fill="#ccd1d9"><path d="m28 167.878906c0-2.207031-1.792969-4-4-4v8c2.207031 0 4-1.789062 4-4zm0 0"/><path d="m28 191.878906c0-2.207031-1.792969-4-4-4v8c2.207031 0 4-1.789062 4-4zm0 0"/><path d="m28 215.878906c0-2.207031-1.792969-4-4-4v8c2.207031 0 4-1.789062 4-4zm0 0"/><path d="m28 239.878906c0-2.207031-1.792969-4-4-4v8c2.207031 0 4-1.789062 4-4zm0 0"/><path d="m28 263.878906c0-2.207031-1.792969-4-4-4v8c2.207031 0 4-1.789062 4-4zm0 0"/><path d="m28 143.878906c0-2.207031-1.792969-4-4-4v8c2.207031 0 4-1.789062 4-4zm0 0"/><path d="m28 119.878906c0-2.207031-1.792969-4-4-4v8c2.207031 0 4-1.789062 4-4zm0 0"/><path d="m28 95.878906c0-2.207031-1.792969-4-4-4v8c2.207031 0 4-1.789062 4-4zm0 0"/><path d="m28 71.878906c0-2.207031-1.792969-4-4-4v8c2.207031 0 4-1.789062 4-4zm0 0"/><path d="m28 47.878906c0-2.207031-1.792969-4-4-4v8c2.207031 0 4-1.789062 4-4zm0 0"/></g></svg>